<svg id="Layer_1" data-name="Layer 1" xmlns="http://www.w3.org/2000/svg" viewBox="0 0 374.72 86.31"><defs><style>.cls-1{fill:#4f545e;}.cls-2{fill:#3f51ae;}</style></defs><title>logo (11)</title><path class="cls-1" d="M115.54,21.18h7l14.53,25.07h.37L151.8,21.08h6.91l.14,44.19h-6.91l-.08-24,.35-7.4h-.37l-12.55,22h-4.14l-12.6-22h-.37l.4,7.41.08,24h-7Z"/><path class="cls-1" d="M184.92,61.44h-.37A14.41,14.41,0,0,1,181,64.72a9.66,9.66,0,0,1-5.49,1.47,12.83,12.83,0,0,1-4.51-.75,11.16,11.16,0,0,1-3.64-2.15A10,10,0,0,1,165,51.54a9.13,9.13,0,0,1,2.7-3.25,12.52,12.52,0,0,1,4-2,17.35,17.35,0,0,1,5.06-.73,19.17,19.17,0,0,1,5.06.57,22.57,22.57,0,0,1,3.09,1.07V46a5.42,5.42,0,0,0-.6-2.53,6,6,0,0,0-1.61-2,7.66,7.66,0,0,0-2.32-1.29,8.44,8.44,0,0,0-2.68-.47,9.14,9.14,0,0,0-4.11.91,8.86,8.86,0,0,0-3.23,2.88L164.87,40a13.92,13.92,0,0,1,5.36-4.5,17,17,0,0,1,7.27-1.53q6.74,0,10.41,3.3t3.74,9.5v18.4h-6.73Zm0-8.89a12.82,12.82,0,0,0-6.83-1.76A8.13,8.13,0,0,0,173,52.28a4.44,4.44,0,0,0-1.9,3.59,3.77,3.77,0,0,0,.5,1.94,5.25,5.25,0,0,0,3.07,2.37,7.18,7.18,0,0,0,2.06.3,7.91,7.91,0,0,0,3.18-.66,8.66,8.66,0,0,0,2.62-1.73,8.55,8.55,0,0,0,1.78-2.51,7,7,0,0,0,.61-3Z"/><path class="cls-1" d="M200.71,40.9h-5.3v-6h5.3V25.59h6.86v9.26H215v6h-7.46l.08,13.82a8.66,8.66,0,0,0,.25,2.09,4.43,4.43,0,0,0,.75,1.58,3.36,3.36,0,0,0,2.66,1.19,6.6,6.6,0,0,0,1.54-.15A7,7,0,0,0,214,59l2.12,6a17.11,17.11,0,0,1-2.71.78,16.45,16.45,0,0,1-3.21.29,9.84,9.84,0,0,1-3.83-.68,9.33,9.33,0,0,1-2.91-1.88,10.1,10.1,0,0,1-2.68-7.36Z"/><path class="cls-1" d="M248.48,57.72a16.44,16.44,0,0,1-5.41,5.89A15.26,15.26,0,0,1,234.43,66a16,16,0,0,1-6.26-1.18,14.72,14.72,0,0,1-5-3.35,15.49,15.49,0,0,1-3.29-5.08,18,18,0,0,1-.1-12.65,15.54,15.54,0,0,1,3.1-5.14A15.08,15.08,0,0,1,234,33.72a16,16,0,0,1,6.27,1.15A13.46,13.46,0,0,1,245,38.13a14.36,14.36,0,0,1,2.95,5,19.81,19.81,0,0,1,1,6.48v.55a2.6,2.6,0,0,0-.06.56,2,2,0,0,0-.06.49l-23.27.08a9.52,9.52,0,0,0,1.13,3.79,8.83,8.83,0,0,0,2.14,2.65,8.19,8.19,0,0,0,2.81,1.53,9.87,9.87,0,0,0,3,.49,8,8,0,0,0,4.87-1.44,11.8,11.8,0,0,0,3.18-3.53Zm-6.4-11.64a8.75,8.75,0,0,0-.59-2.07,6.28,6.28,0,0,0-1.43-2.09,8.29,8.29,0,0,0-2.47-1.63,8.85,8.85,0,0,0-3.67-.66,7.74,7.74,0,0,0-5.09,1.77A8.59,8.59,0,0,0,226,46.13Z"/><path class="cls-1" d="M254.08,34.72h6.48v4.57h.37a8.49,8.49,0,0,1,1.5-2.2,9.89,9.89,0,0,1,2.22-1.81,14.47,14.47,0,0,1,2.52-1.18,7.72,7.72,0,0,1,2.56-.46,9.89,9.89,0,0,1,2.54.27,8.1,8.1,0,0,1,1.91.76l-1.95,6.24a6.83,6.83,0,0,0-1.52-.46,10.3,10.3,0,0,0-2-.14,6.89,6.89,0,0,0-3.06.69,8.14,8.14,0,0,0-4,4.66,10,10,0,0,0-.58,3.42l.05,15.82h-6.85Z"/><path class="cls-1" d="M281.78,29.4a4.48,4.48,0,0,1-3.31-1.35,4.67,4.67,0,0,1,0-6.54,4.61,4.61,0,0,1,6.54,0A4.67,4.67,0,0,1,285,28,4.38,4.38,0,0,1,281.78,29.4Zm-3.34,35.44-.1-30.24h6.85l.1,30.25Z"/><path class="cls-1" d="M311.51,61h-.37a14.57,14.57,0,0,1-3.49,3.25,9.72,9.72,0,0,1-5.51,1.44,13.07,13.07,0,0,1-4.51-.76A11.31,11.31,0,0,1,294,62.81a10,10,0,0,1-2.44-11.75,9.15,9.15,0,0,1,2.64-3.22,12.52,12.52,0,0,1,4-2,17.35,17.35,0,0,1,5.06-.73,18.37,18.37,0,0,1,5.06.57,22.12,22.12,0,0,1,3.09,1.07V45.6a5.54,5.54,0,0,0-.6-2.53,6,6,0,0,0-1.61-2,7.45,7.45,0,0,0-2.32-1.29,8.08,8.08,0,0,0-2.71-.46,9.27,9.27,0,0,0-4.11.91,8.86,8.86,0,0,0-3.23,2.88l-5.44-3.56a13.86,13.86,0,0,1,5.35-4.49A16.92,16.92,0,0,1,304,33.52q6.74,0,10.41,3.3t3.71,9.5l.13,18.4h-6.73Zm0-8.89a12.9,12.9,0,0,0-6.86-1.77,8.2,8.2,0,0,0-5.12,1.5,4.42,4.42,0,0,0-1.9,3.59,3.77,3.77,0,0,0,.5,1.94,5.28,5.28,0,0,0,3,2.32,6.86,6.86,0,0,0,2.06.31,8.3,8.3,0,0,0,3.18-.66,8.51,8.51,0,0,0,4.4-4.24,7,7,0,0,0,.67-3Z"/><path class="cls-1" d="M324.65,64.72l-.15-44.2h6.85l.15,44.19Z"/><path class="cls-1" d="M350.51,41.64,336.8,20.45h8.58l9.68,15.64h.37L365,20.38h8.58L360,41.61l14.7,22.91H366.2L355.47,47.61h-.37l-10.62,17H336Z"/><path class="cls-2" d="M80.91,0,47.65,34.16,13.94.41H0v85.9H13.5L43.15,56.64,33.71,47.2,13.5,67.41V18.88l67,67h13V0Zm0,68.33L56.65,43.15,80.91,18.88Z"/></svg>