<svg id="Layer_1" data-name="Layer 1" xmlns="http://www.w3.org/2000/svg" viewBox="0 0 374.72 86.31"><defs><style>.cls-1{fill:#f2f2f2;}</style></defs><title>MaterialX-Logo</title><path class="cls-1" d="M115.89,21.46l7,0,14.53,25.07h.37l14.36-25.17,6.91,0,.14,44.19-6.91,0-.08-24,.35-7.4h-.37L139.64,56.19l-4.14,0-12.6-22h-.37l.4,7.41.08,24-7,0Z" transform="translate(-0.35 -0.28)"/><path class="cls-1" d="M185.27,61.72h-.37A14.32,14.32,0,0,1,181.39,65a9.71,9.71,0,0,1-5.49,1.47,12.86,12.86,0,0,1-4.51-.75,11.11,11.11,0,0,1-3.64-2.15,10.22,10.22,0,0,1-2.45-3.27,10.18,10.18,0,0,1,0-8.48A9.17,9.17,0,0,1,168,48.57a12.65,12.65,0,0,1,4-2,17.48,17.48,0,0,1,5.06-.73,19.12,19.12,0,0,1,5.06.57,23.3,23.3,0,0,1,3.09,1.07V46.29a5.48,5.48,0,0,0-.6-2.53,6,6,0,0,0-1.61-2,7.83,7.83,0,0,0-2.32-1.29A8.2,8.2,0,0,0,178,40a9.16,9.16,0,0,0-4.11.91,8.9,8.9,0,0,0-3.23,2.88l-5.44-3.56a13.92,13.92,0,0,1,5.36-4.5,16.94,16.94,0,0,1,7.27-1.53q6.73,0,10.41,3.3T192,47L192,65.4l-6.73,0Zm0-8.89a13.34,13.34,0,0,0-3-1.28,13.16,13.16,0,0,0-3.83-.48,8.14,8.14,0,0,0-5.12,1.49,4.44,4.44,0,0,0-1.9,3.59,3.81,3.81,0,0,0,.5,1.94,5.24,5.24,0,0,0,3.07,2.37,7.23,7.23,0,0,0,2.06.3,7.84,7.84,0,0,0,3.18-.66,8.48,8.48,0,0,0,2.62-1.73,8.74,8.74,0,0,0,1.78-2.51A7,7,0,0,0,185.24,52.83Z" transform="translate(-0.35 -0.28)"/><path class="cls-1" d="M201.06,41.18l-5.3,0,0-6.05,5.3,0,0-9.26,6.86,0,0,9.26,7.46,0,0,6.05-7.46,0L208,55a8.55,8.55,0,0,0,.25,2.09,4.38,4.38,0,0,0,.75,1.58,3.35,3.35,0,0,0,2.66,1.19,6.16,6.16,0,0,0,1.54-.15,6.81,6.81,0,0,0,1.17-.47l2.12,6a17,17,0,0,1-2.71.78,16.42,16.42,0,0,1-3.21.29,10,10,0,0,1-3.83-.68,9.23,9.23,0,0,1-2.91-1.88,10.09,10.09,0,0,1-2.68-7.36Z" transform="translate(-0.35 -0.28)"/><path class="cls-1" d="M248.83,58a16.45,16.45,0,0,1-5.41,5.89,15.24,15.24,0,0,1-8.64,2.37,16,16,0,0,1-6.26-1.18,14.77,14.77,0,0,1-5-3.35,15.46,15.46,0,0,1-3.29-5.08,18,18,0,0,1-.1-12.65,15.63,15.63,0,0,1,3.1-5.14,14.86,14.86,0,0,1,4.83-3.5A15,15,0,0,1,234.37,34a16.08,16.08,0,0,1,6.27,1.15,13.42,13.42,0,0,1,4.67,3.26,14.45,14.45,0,0,1,2.95,5.05,20,20,0,0,1,1,6.48v.55a3.06,3.06,0,0,0-.06.56,2.12,2.12,0,0,0-.06.49l-23.27.08A9.62,9.62,0,0,0,227,55.41a8.82,8.82,0,0,0,2.14,2.65,8.21,8.21,0,0,0,2.81,1.53,9.89,9.89,0,0,0,3,.49,8,8,0,0,0,4.87-1.44A11.83,11.83,0,0,0,243,55.11Zm-6.4-11.64a8.57,8.57,0,0,0-.59-2.07,6.34,6.34,0,0,0-1.43-2.09,8.29,8.29,0,0,0-2.47-1.63,8.82,8.82,0,0,0-3.67-.66,7.7,7.7,0,0,0-5.09,1.77,8.6,8.6,0,0,0-2.85,4.73Z" transform="translate(-0.35 -0.28)"/><path class="cls-1" d="M254.43,35l6.48,0,0,4.57h.37a8.76,8.76,0,0,1,1.5-2.2A10.06,10.06,0,0,1,265,35.56a14.47,14.47,0,0,1,2.52-1.18,7.75,7.75,0,0,1,2.56-.46,9.51,9.51,0,0,1,2.54.27,8.28,8.28,0,0,1,1.91.76l-1.95,6.24a6.76,6.76,0,0,0-1.52-.46,10.6,10.6,0,0,0-2-.14,6.81,6.81,0,0,0-3.06.69,8,8,0,0,0-2.43,1.87,8.29,8.29,0,0,0-1.62,2.79,10,10,0,0,0-.58,3.42l.05,15.82-6.85,0Z" transform="translate(-0.35 -0.28)"/><path class="cls-1" d="M282.13,29.68a4.46,4.46,0,0,1-3.31-1.35,4.68,4.68,0,0,1,0-6.54,4.44,4.44,0,0,1,3.3-1.37,4.39,4.39,0,0,1,3.24,1.35,4.68,4.68,0,0,1,0,6.54A4.37,4.37,0,0,1,282.13,29.68Zm-3.34,35.44-.1-30.24,6.85,0,.1,30.25Z" transform="translate(-0.35 -0.28)"/><path class="cls-1" d="M311.86,61.31h-.37A14.52,14.52,0,0,1,308,64.56,9.71,9.71,0,0,1,302.49,66a13.1,13.1,0,0,1-4.51-.76,11.08,11.08,0,0,1-3.65-2.15,10.3,10.3,0,0,1-2.44-3.26,10.2,10.2,0,0,1,0-8.49,9.15,9.15,0,0,1,2.64-3.22,12.64,12.64,0,0,1,4-2,17.48,17.48,0,0,1,5.06-.73,18.32,18.32,0,0,1,5.06.57,21.92,21.92,0,0,1,3.09,1.07V45.88a5.58,5.58,0,0,0-.6-2.53,6,6,0,0,0-1.61-2,7.41,7.41,0,0,0-2.32-1.29,8,8,0,0,0-2.71-.46,9.27,9.27,0,0,0-4.11.91,8.82,8.82,0,0,0-3.23,2.88l-5.44-3.56a13.94,13.94,0,0,1,5.35-4.49,16.87,16.87,0,0,1,7.28-1.54q6.74,0,10.41,3.3t3.71,9.5L318.6,65l-6.73,0Zm0-8.89A12.92,12.92,0,0,0,305,50.65a8.2,8.2,0,0,0-5.12,1.5,4.42,4.42,0,0,0-1.9,3.59,3.73,3.73,0,0,0,.5,1.94A5.28,5.28,0,0,0,301.52,60a6.86,6.86,0,0,0,2.06.31,8.19,8.19,0,0,0,3.18-.66,8.54,8.54,0,0,0,4.4-4.24A7,7,0,0,0,311.83,52.42Z" transform="translate(-0.35 -0.28)"/><path class="cls-1" d="M325,65l-.15-44.2,6.85,0,.15,44.19Z" transform="translate(-0.35 -0.28)"/><path class="cls-1" d="M350.86,41.92,337.15,20.73l8.58,0,9.68,15.64h.37l9.58-15.71,8.58,0L360.37,41.89l14.7,22.91-8.52,0L355.82,47.89h-.37l-10.62,17-8.52,0Z" transform="translate(-0.35 -0.28)"/><path class="cls-1" d="M81.26.28,48,34.44,14.29.69H.35v85.9h13.5L43.5,56.92l-9.44-9.44L13.85,67.69V19.16l67,67h13V.28Zm0,68.33L57,43.43,81.26,19.16Z" transform="translate(-0.35 -0.28)"/></svg>